<mxfile host="app.diagrams.net" agent="Mozilla/5.0 (Windows NT 10.0; Win64; x64) AppleWebKit/537.36 (KHTML, like Gecko) Chrome/140.0.0.0 Safari/537.36" version="28.2.5">
  <diagram name="Page-1" id="3eJe33k2HdtksO4WkEzc">
    <mxGraphModel dx="1249" dy="700" grid="1" gridSize="10" guides="1" tooltips="1" connect="1" arrows="1" fold="1" page="1" pageScale="1" pageWidth="850" pageHeight="1100" math="0" shadow="0">
      <root>
        <mxCell id="0" />
        <mxCell id="1" parent="0" />
        <mxCell id="guPYarhxBemi_oAsQ2TF-1" value="Actor" style="shape=umlActor;verticalLabelPosition=bottom;verticalAlign=top;html=1;outlineConnect=0;" vertex="1" parent="1">
          <mxGeometry x="80" y="120" width="30" height="60" as="geometry" />
        </mxCell>
        <mxCell id="guPYarhxBemi_oAsQ2TF-2" value="Actor" style="shape=umlActor;verticalLabelPosition=bottom;verticalAlign=top;html=1;outlineConnect=0;" vertex="1" parent="1">
          <mxGeometry x="80" y="360" width="30" height="60" as="geometry" />
        </mxCell>
        <mxCell id="guPYarhxBemi_oAsQ2TF-3" value="Actor" style="shape=umlActor;verticalLabelPosition=bottom;verticalAlign=top;html=1;outlineConnect=0;" vertex="1" parent="1">
          <mxGeometry x="795" y="100" width="30" height="60" as="geometry" />
        </mxCell>
        <mxCell id="guPYarhxBemi_oAsQ2TF-5" value="Financial Analyst" style="text;html=1;align=center;verticalAlign=middle;whiteSpace=wrap;rounded=0;" vertex="1" parent="1">
          <mxGeometry x="65" y="200" width="60" height="30" as="geometry" />
        </mxCell>
        <mxCell id="guPYarhxBemi_oAsQ2TF-8" value="Disruptive Insider" style="text;html=1;align=center;verticalAlign=middle;whiteSpace=wrap;rounded=0;" vertex="1" parent="1">
          <mxGeometry x="65" y="440" width="60" height="30" as="geometry" />
        </mxCell>
        <mxCell id="guPYarhxBemi_oAsQ2TF-9" value="External Attacker" style="text;html=1;align=center;verticalAlign=middle;whiteSpace=wrap;rounded=0;" vertex="1" parent="1">
          <mxGeometry x="780" y="180" width="60" height="30" as="geometry" />
        </mxCell>
        <mxCell id="guPYarhxBemi_oAsQ2TF-11" value="Run Notebook/Execute Query" style="ellipse;whiteSpace=wrap;html=1;" vertex="1" parent="1">
          <mxGeometry x="355" y="100" width="200" height="80" as="geometry" />
        </mxCell>
        <mxCell id="guPYarhxBemi_oAsQ2TF-16" value="Parallel Session Storm" style="ellipse;whiteSpace=wrap;html=1;fillColor=#DDDDDD;" vertex="1" parent="1">
          <mxGeometry x="180" y="330" width="120" height="50" as="geometry" />
        </mxCell>
        <mxCell id="guPYarhxBemi_oAsQ2TF-40" value="" style="edgeStyle=orthogonalEdgeStyle;rounded=0;orthogonalLoop=1;jettySize=auto;html=1;dashed=1;strokeColor=#FF0000;exitX=0.878;exitY=0.727;exitDx=0;exitDy=0;exitPerimeter=0;" edge="1" parent="1" source="guPYarhxBemi_oAsQ2TF-18">
          <mxGeometry relative="1" as="geometry">
            <mxPoint x="460" y="240" as="targetPoint" />
            <Array as="points">
              <mxPoint x="330" y="126" />
              <mxPoint x="330" y="240" />
              <mxPoint x="435" y="240" />
            </Array>
          </mxGeometry>
        </mxCell>
        <mxCell id="guPYarhxBemi_oAsQ2TF-30" value="" style="edgeStyle=orthogonalEdgeStyle;rounded=0;orthogonalLoop=1;jettySize=auto;html=1;dashed=1;strokeColor=#FF0000;" edge="1" parent="1" source="guPYarhxBemi_oAsQ2TF-17">
          <mxGeometry relative="1" as="geometry">
            <mxPoint x="460" y="220" as="targetPoint" />
            <Array as="points">
              <mxPoint x="440" y="220" />
              <mxPoint x="440" y="220" />
            </Array>
          </mxGeometry>
        </mxCell>
        <mxCell id="guPYarhxBemi_oAsQ2TF-18" value="Runaway Query" style="ellipse;whiteSpace=wrap;html=1;fillColor=#DDDDDD;" vertex="1" parent="1">
          <mxGeometry x="180" y="90" width="120" height="50" as="geometry" />
        </mxCell>
        <mxCell id="guPYarhxBemi_oAsQ2TF-19" value="Bypass Controls" style="ellipse;whiteSpace=wrap;html=1;fillColor=#DDDDDD;" vertex="1" parent="1">
          <mxGeometry x="180" y="420" width="120" height="50" as="geometry" />
        </mxCell>
        <mxCell id="guPYarhxBemi_oAsQ2TF-20" value="Flooding Queries" style="ellipse;whiteSpace=wrap;html=1;fillColor=#DDDDDD;" vertex="1" parent="1">
          <mxGeometry x="590" y="80" width="120" height="50" as="geometry" />
        </mxCell>
        <mxCell id="guPYarhxBemi_oAsQ2TF-21" value="Amplification Patterns" style="ellipse;whiteSpace=wrap;html=1;fillColor=#DDDDDD;" vertex="1" parent="1">
          <mxGeometry x="600" y="150" width="120" height="50" as="geometry" />
        </mxCell>
        <mxCell id="guPYarhxBemi_oAsQ2TF-54" value="" style="endArrow=classic;html=1;rounded=0;dashed=1;strokeColor=#FF0000;exitX=0.939;exitY=0.527;exitDx=0;exitDy=0;exitPerimeter=0;" edge="1" parent="1">
          <mxGeometry width="50" height="50" relative="1" as="geometry">
            <mxPoint x="230.00000000000006" y="330.00999999999993" as="sourcePoint" />
            <mxPoint x="460" y="280" as="targetPoint" />
            <Array as="points">
              <mxPoint x="230" y="280" />
            </Array>
          </mxGeometry>
        </mxCell>
        <mxCell id="guPYarhxBemi_oAsQ2TF-57" value="" style="endArrow=classic;html=1;rounded=0;dashed=1;strokeColor=#FF0000;" edge="1" parent="1">
          <mxGeometry width="50" height="50" relative="1" as="geometry">
            <mxPoint x="300" y="450" as="sourcePoint" />
            <mxPoint x="460" y="320" as="targetPoint" />
            <Array as="points">
              <mxPoint x="300" y="450" />
              <mxPoint x="310" y="390" />
              <mxPoint x="320" y="320" />
            </Array>
          </mxGeometry>
        </mxCell>
        <mxCell id="guPYarhxBemi_oAsQ2TF-59" value="" style="endArrow=classic;html=1;rounded=0;dashed=1;strokeColor=#FF0000;exitX=0.444;exitY=1.073;exitDx=0;exitDy=0;exitPerimeter=0;" edge="1" parent="1" source="guPYarhxBemi_oAsQ2TF-21">
          <mxGeometry width="50" height="50" relative="1" as="geometry">
            <mxPoint x="600" y="180" as="sourcePoint" />
            <mxPoint x="470" y="235" as="targetPoint" />
            <Array as="points">
              <mxPoint x="570" y="235" />
            </Array>
          </mxGeometry>
        </mxCell>
        <mxCell id="guPYarhxBemi_oAsQ2TF-60" value="" style="endArrow=classic;html=1;rounded=0;dashed=1;strokeColor=#FF0000;" edge="1" parent="1" source="guPYarhxBemi_oAsQ2TF-12">
          <mxGeometry width="50" height="50" relative="1" as="geometry">
            <mxPoint x="560" y="180" as="sourcePoint" />
            <mxPoint x="465" y="210" as="targetPoint" />
            <Array as="points" />
          </mxGeometry>
        </mxCell>
        <mxCell id="guPYarhxBemi_oAsQ2TF-17" value="Repeated Medium Queries" style="ellipse;whiteSpace=wrap;html=1;fillColor=#DDDDDD;" vertex="1" parent="1">
          <mxGeometry x="180" y="170" width="120" height="50" as="geometry" />
        </mxCell>
        <mxCell id="guPYarhxBemi_oAsQ2TF-62" value="" style="endArrow=classic;html=1;rounded=0;dashed=1;strokeColor=#FF0000;exitX=0.017;exitY=0.767;exitDx=0;exitDy=0;exitPerimeter=0;" edge="1" parent="1" source="guPYarhxBemi_oAsQ2TF-20">
          <mxGeometry width="50" height="50" relative="1" as="geometry">
            <mxPoint x="637" y="129" as="sourcePoint" />
            <mxPoint x="470" y="250" as="targetPoint" />
            <Array as="points">
              <mxPoint x="590" y="250" />
            </Array>
          </mxGeometry>
        </mxCell>
        <mxCell id="guPYarhxBemi_oAsQ2TF-12" value="Denial of Service" style="ellipse;whiteSpace=wrap;html=1;fontColor=#FFFFFF;fillColor=#1A1A1A;" vertex="1" parent="1">
          <mxGeometry x="380" y="330" width="170" height="50" as="geometry" />
        </mxCell>
        <mxCell id="guPYarhxBemi_oAsQ2TF-65" value="&amp;lt;&amp;lt;threatens&amp;gt;&amp;gt;" style="text;html=1;align=center;verticalAlign=middle;whiteSpace=wrap;rounded=0;fontColor=light-dark(#c72323, #ededed);fontSize=20;" vertex="1" parent="1">
          <mxGeometry x="510" y="280" width="60" height="30" as="geometry" />
        </mxCell>
        <mxCell id="guPYarhxBemi_oAsQ2TF-67" value="Execution Limits" style="ellipse;whiteSpace=wrap;html=1;fillColor=none;strokeColor=#00CC66;" vertex="1" parent="1">
          <mxGeometry x="720" y="490" width="120" height="50" as="geometry" />
        </mxCell>
        <mxCell id="guPYarhxBemi_oAsQ2TF-70" value="Query Governer" style="ellipse;whiteSpace=wrap;html=1;fillColor=none;strokeColor=#00CC66;" vertex="1" parent="1">
          <mxGeometry x="720" y="560" width="120" height="50" as="geometry" />
        </mxCell>
        <mxCell id="guPYarhxBemi_oAsQ2TF-71" value="Rate Limiting and Budgets" style="ellipse;whiteSpace=wrap;html=1;fillColor=none;strokeColor=#00CC66;" vertex="1" parent="1">
          <mxGeometry x="690" y="640" width="120" height="50" as="geometry" />
        </mxCell>
        <mxCell id="guPYarhxBemi_oAsQ2TF-72" value="Concurrency Management" style="ellipse;whiteSpace=wrap;html=1;fillColor=none;strokeColor=#00CC66;" vertex="1" parent="1">
          <mxGeometry x="550" y="650" width="120" height="50" as="geometry" />
        </mxCell>
        <mxCell id="guPYarhxBemi_oAsQ2TF-73" value="Sandbox Enforcement" style="ellipse;whiteSpace=wrap;html=1;fillColor=none;strokeColor=#00CC66;" vertex="1" parent="1">
          <mxGeometry x="380" y="650" width="120" height="50" as="geometry" />
        </mxCell>
        <mxCell id="guPYarhxBemi_oAsQ2TF-74" value="Monitoring and alerts" style="ellipse;whiteSpace=wrap;html=1;fillColor=none;strokeColor=#00CC66;" vertex="1" parent="1">
          <mxGeometry x="235" y="580" width="120" height="50" as="geometry" />
        </mxCell>
        <mxCell id="guPYarhxBemi_oAsQ2TF-76" value="" style="endArrow=classic;html=1;rounded=0;" edge="1" parent="1">
          <mxGeometry width="50" height="50" relative="1" as="geometry">
            <mxPoint x="120" y="170" as="sourcePoint" />
            <mxPoint x="180" y="120" as="targetPoint" />
          </mxGeometry>
        </mxCell>
        <mxCell id="guPYarhxBemi_oAsQ2TF-77" value="" style="endArrow=classic;html=1;rounded=0;entryX=0;entryY=0.5;entryDx=0;entryDy=0;" edge="1" parent="1" target="guPYarhxBemi_oAsQ2TF-17">
          <mxGeometry width="50" height="50" relative="1" as="geometry">
            <mxPoint x="120" y="180" as="sourcePoint" />
            <mxPoint x="160" y="200" as="targetPoint" />
          </mxGeometry>
        </mxCell>
        <mxCell id="guPYarhxBemi_oAsQ2TF-78" value="" style="endArrow=classic;html=1;rounded=0;" edge="1" parent="1">
          <mxGeometry width="50" height="50" relative="1" as="geometry">
            <mxPoint x="110" y="400" as="sourcePoint" />
            <mxPoint x="180" y="360" as="targetPoint" />
          </mxGeometry>
        </mxCell>
        <mxCell id="guPYarhxBemi_oAsQ2TF-79" value="" style="endArrow=classic;html=1;rounded=0;" edge="1" parent="1">
          <mxGeometry width="50" height="50" relative="1" as="geometry">
            <mxPoint x="120" y="410" as="sourcePoint" />
            <mxPoint x="180" y="440" as="targetPoint" />
          </mxGeometry>
        </mxCell>
        <mxCell id="guPYarhxBemi_oAsQ2TF-81" value="" style="endArrow=classic;html=1;rounded=0;entryX=1;entryY=0.5;entryDx=0;entryDy=0;" edge="1" parent="1" target="guPYarhxBemi_oAsQ2TF-20">
          <mxGeometry width="50" height="50" relative="1" as="geometry">
            <mxPoint x="790" y="150" as="sourcePoint" />
            <mxPoint x="750" y="30" as="targetPoint" />
          </mxGeometry>
        </mxCell>
        <mxCell id="guPYarhxBemi_oAsQ2TF-83" value="" style="endArrow=classic;html=1;rounded=0;entryX=0.989;entryY=0.713;entryDx=0;entryDy=0;entryPerimeter=0;" edge="1" parent="1" target="guPYarhxBemi_oAsQ2TF-21">
          <mxGeometry width="50" height="50" relative="1" as="geometry">
            <mxPoint x="790" y="160" as="sourcePoint" />
            <mxPoint x="730" y="240" as="targetPoint" />
          </mxGeometry>
        </mxCell>
        <mxCell id="guPYarhxBemi_oAsQ2TF-91" value="" style="endArrow=none;html=1;rounded=0;entryX=1;entryY=1;entryDx=0;entryDy=0;strokeColor=#00CC00;" edge="1" parent="1" target="guPYarhxBemi_oAsQ2TF-105">
          <mxGeometry width="50" height="50" relative="1" as="geometry">
            <mxPoint x="290" y="580" as="sourcePoint" />
            <mxPoint x="340" y="530" as="targetPoint" />
          </mxGeometry>
        </mxCell>
        <mxCell id="guPYarhxBemi_oAsQ2TF-93" value="" style="endArrow=none;html=1;rounded=0;strokeColor=#00CC00;entryX=0;entryY=0;entryDx=0;entryDy=18;entryPerimeter=0;" edge="1" parent="1" target="guPYarhxBemi_oAsQ2TF-112">
          <mxGeometry width="50" height="50" relative="1" as="geometry">
            <mxPoint x="440" y="650" as="sourcePoint" />
            <mxPoint x="437" y="382" as="targetPoint" />
          </mxGeometry>
        </mxCell>
        <mxCell id="guPYarhxBemi_oAsQ2TF-94" value="" style="endArrow=none;html=1;rounded=0;strokeColor=#00CC00;entryX=0;entryY=0.5;entryDx=0;entryDy=0;entryPerimeter=0;" edge="1" parent="1" source="guPYarhxBemi_oAsQ2TF-72" target="guPYarhxBemi_oAsQ2TF-112">
          <mxGeometry width="50" height="50" relative="1" as="geometry">
            <mxPoint x="570" y="660" as="sourcePoint" />
            <mxPoint x="620" y="610" as="targetPoint" />
          </mxGeometry>
        </mxCell>
        <mxCell id="guPYarhxBemi_oAsQ2TF-95" value="" style="endArrow=none;html=1;rounded=0;exitX=0;exitY=0;exitDx=0;exitDy=42;strokeColor=#00CC00;exitPerimeter=0;entryX=0;entryY=0;entryDx=0;entryDy=0;" edge="1" parent="1" source="guPYarhxBemi_oAsQ2TF-112" target="guPYarhxBemi_oAsQ2TF-71">
          <mxGeometry width="50" height="50" relative="1" as="geometry">
            <mxPoint x="640" y="630" as="sourcePoint" />
            <mxPoint x="690" y="580" as="targetPoint" />
          </mxGeometry>
        </mxCell>
        <mxCell id="guPYarhxBemi_oAsQ2TF-96" value="" style="endArrow=none;html=1;rounded=0;strokeColor=#00CC00;entryX=0.017;entryY=0.173;entryDx=0;entryDy=0;entryPerimeter=0;" edge="1" parent="1" target="guPYarhxBemi_oAsQ2TF-70">
          <mxGeometry width="50" height="50" relative="1" as="geometry">
            <mxPoint x="488" y="462" as="sourcePoint" />
            <mxPoint x="720" y="480" as="targetPoint" />
          </mxGeometry>
        </mxCell>
        <mxCell id="guPYarhxBemi_oAsQ2TF-97" value="" style="endArrow=none;html=1;rounded=0;exitX=0;exitY=0;exitDx=30;exitDy=42;exitPerimeter=0;strokeColor=#00CC00;entryX=0;entryY=0.26;entryDx=0;entryDy=0;entryPerimeter=0;" edge="1" parent="1" source="guPYarhxBemi_oAsQ2TF-112" target="guPYarhxBemi_oAsQ2TF-67">
          <mxGeometry width="50" height="50" relative="1" as="geometry">
            <mxPoint x="660" y="430" as="sourcePoint" />
            <mxPoint x="710" y="380" as="targetPoint" />
          </mxGeometry>
        </mxCell>
        <mxCell id="guPYarhxBemi_oAsQ2TF-105" value="&lt;font style=&quot;color: rgb(0, 204, 102);&quot;&gt;prevents&lt;/font&gt;" style="text;html=1;align=center;verticalAlign=middle;whiteSpace=wrap;rounded=0;" vertex="1" parent="1">
          <mxGeometry x="400" y="420" width="60" height="30" as="geometry" />
        </mxCell>
        <mxCell id="guPYarhxBemi_oAsQ2TF-112" value="" style="html=1;shadow=0;dashed=0;align=center;verticalAlign=middle;shape=mxgraph.arrows2.arrow;dy=0.6;dx=40;direction=north;notch=0;" vertex="1" parent="1">
          <mxGeometry x="440" y="380" width="60" height="100" as="geometry" />
        </mxCell>
      </root>
    </mxGraphModel>
  </diagram>
</mxfile>
